<?xml version="1.0" encoding="utf-8"?>
<!-- Generator: Adobe Illustrator 18.1.1, SVG Export Plug-In . SVG Version: 6.00 Build 0)  -->
<svg version="1.1" xmlns="http://www.w3.org/2000/svg" xmlns:xlink="http://www.w3.org/1999/xlink" x="0px" y="0px"
	 viewBox="0 0 500 500" enable-background="new 0 0 500 500" xml:space="preserve">
<g id="Half_Gear" display="none">
	<path display="inline" fill="#03ADB5" d="M377,211.9c-2.6-8.6-6-16.9-10.1-24.6l8.1-24.6l-37.1-37.4l-24.4,8.2
		c-7.7-4.2-15.9-7.6-24.4-10.2L277.5,100H260v90.8c28.4,4.8,50,29.4,50,59.2s-21.6,54.4-50,59.2V400h17.5l11.5-23.2
		c8.5-2.6,16.7-6,24.4-10.2l24.4,8.2l37.1-37.4l-8.1-24.6c4.2-7.8,7.6-16,10.1-24.6l23-11.6v-52.9L377,211.9z"/>
</g>
<g id="Half_bubble">
	<path fill="#F4EED8" d="M240,190.5V100c-78.2,5.1-140,70.2-140,149.7c0,44.6,19.4,84.6,50.3,112c3.1,17.8,0.6,52.9-50.3,88
		c0,0,81.8-11.7,120.4-52.9c6.4,1.3,13,2.2,19.6,2.6v-90.5c-28.4-4.8-50-29.4-50-59.2S211.6,195.3,240,190.5z"/>
</g>
<g id="Gear" display="none">
	<path display="inline" fill="#03ADB5" d="M377,211.9c-2.6-8.6-6-16.9-10.1-24.6l8.1-24.6l-37.1-37.4l-24.4,8.2
		c-7.7-4.2-15.9-7.6-24.4-10.2L277.5,100H260h-20h-17.5L211,123.2c-8.5,2.6-16.7,6-24.4,10.2l-24.4-8.2L125,162.7l8.1,24.6
		c-4.2,7.8-7.6,16-10.1,24.6l-23,11.6v52.9l23,11.6c2.6,8.6,6,16.9,10.1,24.6l-8.1,24.6l37.1,37.4l24.4-8.2
		c7.7,4.2,15.9,7.6,24.4,10.2l11.5,23.2H240h20h17.5l11.5-23.2c8.5-2.6,16.7-6,24.4-10.2l24.4,8.2l37.1-37.4l-8.1-24.6
		c4.2-7.8,7.6-16,10.1-24.6l23-11.6v-52.9L377,211.9z M250,310c-33.1,0-60-26.9-60-60s26.9-60,60-60s60,26.9,60,60
		S283.1,310,250,310z"/>
</g>
</svg>
