<?xml version="1.0" encoding="utf-8"?>
<!-- Generator: Adobe Illustrator 18.1.1, SVG Export Plug-In . SVG Version: 6.00 Build 0)  -->
<svg version="1.1" id="Calque_1" xmlns="http://www.w3.org/2000/svg" xmlns:xlink="http://www.w3.org/1999/xlink" x="0px" y="0px"
	 viewBox="0 0 546.7 548.3" enable-background="new 0 0 546.7 548.3" xml:space="preserve">
<g>
	<g>
		<g>
			<path fill="#515151" d="M398.6,211.9c-2.6-8.6-6-16.9-10.1-24.6l8.1-24.6l-37.1-37.4l-24.4,8.2c-7.7-4.2-15.9-7.6-24.4-10.2
				L299.2,100h-17.5v90.8c28.4,4.8,50,29.4,50,59.2s-21.6,54.4-50,59.2V400h17.5l11.5-23.2c8.5-2.6,16.7-6,24.4-10.2l24.4,8.2
				l37.1-37.4l-8.1-24.6c4.2-7.8,7.6-16,10.1-24.6l23-11.6v-52.9L398.6,211.9z"/>
		</g>
	</g>
</g>
<g>
	<g>
		<path fill="#515151" d="M261.7,190.8v-90.5c-78.2,5.1-140,70.2-140,149.7c0,44.6,19.4,84.6,50.3,112c3.1,17.8,0.6,52.9-50.3,88
			c0,0,81.8-11.7,120.4-52.9c6.4,1.3,13,2.2,19.6,2.6v-90.5c-28.4-4.8-50-29.4-50-59.2S233.3,195.6,261.7,190.8z"/>
	</g>
</g>
</svg>
