<?xml version="1.0" encoding="utf-8"?>
<!-- Generator: Adobe Illustrator 18.1.1, SVG Export Plug-In . SVG Version: 6.00 Build 0)  -->
<svg version="1.1" id="Layer_1" xmlns="http://www.w3.org/2000/svg" xmlns:xlink="http://www.w3.org/1999/xlink" x="0px" y="0px"
	 viewBox="3.6 207.6 492.8 76.9" enable-background="new 3.6 207.6 492.8 76.9" xml:space="preserve">
<path fill="#03ADB5" d="M3.6,273.8v-55.4h24.3c8.5,0,14.8,1.6,18.8,4.9s5.9,8.4,5.9,15.4c0,6.5-1.8,11.4-5.4,14.4
	c-3.5,3-9.1,4.5-16.9,4.5h-6.4v16.3H3.6z M24.1,233.8v9.3h3.1c1.9,0,3.4-0.4,4.5-1.3c1-0.8,1.5-1.9,1.5-3.4s-0.5-2.6-1.6-3.4
	c-1-0.9-2.5-1.3-4.4-1.3C27.3,233.8,24.1,233.8,24.1,233.8z"/>
<path fill="#03ADB5" d="M60.8,273.8v-55.4h37.8v15H80.6v5.4h16.3V253H80.6v5.8H99v15H60.8z"/>
<path fill="#03ADB5" d="M164.4,273.8l20.1-55.5h22.6l19.9,55.5h-21.9l-1.9-7h-15.4l-1.6,7H164.4z M191.4,253.6h8.5l-1.8-6.3
	c-0.9-3.1-1.4-5.6-1.7-7.4c-0.3-1.8-0.5-3.4-0.6-4.9h-0.4c-0.1,1.5-0.3,3.1-0.6,4.9c-0.3,1.8-0.9,4.1-1.8,7.4L191.4,253.6z"/>
<path fill="#03ADB5" d="M353.3,238.6c-0.5-1.6-1.1-3.3-2-4.8l1.6-4.8l-7.1-7.3l-4.7,1.6c-1.5-0.8-3-1.5-4.8-2L334,217h-3.4v17.5
	c5.5,0.9,9.6,5.6,9.6,11.4s-4.1,10.5-9.6,11.4v17.5h3.4l2.3-4.5c1.6-0.5,3.3-1.1,4.8-2l4.7,1.6l7.1-7.3l-1.6-4.8
	c0.8-1.5,1.5-3.1,2-4.8l4.4-2.3v-10.3L353.3,238.6z"/>
<g>
	<g>
		<g>
			<g>
				<path fill="#03ADB5" d="M289.6,243.5c0-0.5-0.1-1.4-0.1-2.5h-19.6c0.8,1.5,1.1,3.3,1.1,5c0,6.4-5.3,11.6-11.6,11.6
					c-6.4,0-11.6-5.3-11.6-11.6c0-6.4,5.3-11.6,11.6-11.6c3.5,0,6.5,1.5,8.6,3.9l17.8-6.5c-2.9-4.8-6.5-8.5-11-10.9
					c-4.5-2.5-9.6-3.8-15.4-3.8c-4.3,0-8.3,0.8-11.9,2.1c-3.6,1.4-6.9,3.5-9.8,6.1c-2.7,2.6-4.9,5.8-6.4,9.3
					c-1.5,3.5-2.1,7.4-2.1,11.5s0.8,7.9,2.1,11.4c1.5,3.5,3.5,6.6,6.4,9.4c2.9,2.8,6.1,4.8,9.8,6.3c3.6,1.4,7.6,2.1,11.9,2.1
					c5.8,0,11-1.3,15.5-3.8c4.5-2.5,8.3-6.1,11.1-10.9c1.1-2,2.1-4.4,2.8-7s0.9-5.5,0.9-8.8C289.6,244.5,289.6,244,289.6,243.5z"/>
			</g>
		</g>
		<g>
			<rect x="259.9" y="240.9" fill="#03ADB5" width="19.6" height="13"/>
		</g>
	</g>
</g>
<g>
	<g>
		<path fill="#03ADB5" d="M158.4,231.9c-2.6-4.1-6.4-7.5-11.3-10c-2.4-1.1-5.4-2.1-9-2.6c-3.8-0.6-8.1-0.9-13.4-0.9h-16.5v55.4h14.9
			c6.1,0,11.1-0.3,14.8-0.9c3.6-0.5,6.8-1.5,9.1-2.6c4.9-2.5,8.6-5.9,11.3-10c2.6-4.1,3.9-8.9,3.9-14.1
			C162.3,240.8,161,236,158.4,231.9z M131.8,257.5c-1.1,0-2.3-0.1-3.3-0.5v-0.1v-21.5l0,0c1-0.3,2.1-0.5,3.3-0.5
			c6.3,0,11.3,5,11.3,11.3S137.9,257.5,131.8,257.5z"/>
	</g>
</g>
<circle fill="#F4EED8" cx="379" cy="245.9" r="11"/>
<path fill="#F4EED8" d="M326.9,234.5v-17.4c-15,1-27,13.5-27,28.8c0,8.6,3.8,16.3,9.6,21.5c0.6,3.4,0.1,10.1-9.6,16.9
	c0,0,15.8-2.3,23.1-10.3c1.3,0.3,2.5,0.4,3.8,0.5v-17.3c-5.5-0.9-9.6-5.6-9.6-11.4S321.4,235.4,326.9,234.5z"/>
<path fill="#F4EED8" d="M402.1,273.8v-55.4h37.8v15H422v5.4h16.3V253H422v5.8h18.4v15H402.1z"/>
<path fill="#F4EED8" d="M475.9,218.4v26.9c0,4-0.3,6.5-0.8,7.5s-1.4,1.6-2.6,1.6s-2.1-0.5-2.6-1.6s-0.8-3.6-0.8-7.5v-26.9h-20.4
	v29.5c0,9.5,1.9,16.4,5.8,20.8s9.9,6.6,18.1,6.6s14.3-2.3,18-6.6s5.6-11.4,5.6-20.8v-29.5H475.9z"/>
</svg>
