<?xml version="1.0" encoding="utf-8"?>
<svg class="pedago-logo" version="1.1" id="Layer_1" xmlns="http://www.w3.org/2000/svg" xmlns:xlink="http://www.w3.org/1999/xlink" x="0px" y="0px"
   viewBox="3.6 663 611.7 100" enable-background="new 3.6 663 611.7 100" xml:space="preserve">
   <style type="text/css">
		#gear {
		  animation-name: spin;
		  animation-duration: 4000ms;
		  animation-iteration-count: infinite;
		  animation-timing-function: linear;
		  transform-origin: 407.9px 712.7px;
		  animation-play-state: paused;
		}

		.pedago-logo #logo-wrapper:hover #gear {
		  animation-play-state: running;
		}

		@keyframes spin {
		  from {
			transform: rotate(0deg);
		  }
		  to {
			transform: rotate(360deg);
		  }
		}
   </style>
   <path fill="#00ACB4" d="M3.6,747.1v-68.8h30.1c10.6,0,18.4,2,23.3,6c4.9,4,7.4,10.4,7.4,19.1c0,8.1-2.2,14.1-6.6,17.8
      c-4.4,3.7-11.4,5.6-21,5.6h-7.9v20.3H3.6z M28.9,697.4v11.5h3.9c2.4,0,4.2-0.5,5.5-1.5c1.3-1,1.9-2.4,1.9-4.2c0-1.8-0.7-3.2-2-4.3
      c-1.3-1-3.1-1.5-5.5-1.5H28.9z"/>
   <path fill="#00ACB4" d="M74.4,747.1v-68.8h46.9V697H99.2v6.6h20.1v17.6H99.2v7.2h22.8v18.7H74.4z"/>
   <path fill="#00ACB4" d="M203.2,747.1l25-68.8h28.1l24.5,68.8h-27.1l-2.3-8.7h-19l-2.2,8.7H203.2z M236.6,722.1h10.5l-2.2-7.8
      c-1.1-3.9-1.8-7-2.2-9.1c-0.4-2.1-0.6-4.1-0.7-6h-0.4c-0.1,1.9-0.3,3.9-0.7,6c-0.4,2.1-1.1,5.2-2.2,9.1L236.6,722.1z"/>
   <g>
      <g>
         <g>
            <g>
               <path fill="#00ACB4" d="M358.7,709.5c0-0.7-0.1-1.7-0.1-3.2h-24.3c0.9,1.9,1.4,4,1.4,6.2c0,8-6.5,14.4-14.4,14.4
                  c-8,0-14.4-6.5-14.4-14.4c0-8,6.5-14.4,14.4-14.4c4.3,0,8.1,1.9,10.8,4.9l22-8c-3.5-6-8.1-10.5-13.7-13.6
                  c-5.6-3.1-12-4.6-19.2-4.6c-5.3,0-10.2,0.9-14.8,2.6c-4.6,1.8-8.6,4.3-12.1,7.7c-3.4,3.3-6.1,7.2-7.9,11.5
                  c-1.8,4.4-2.7,9.1-2.7,14.3c0,5.1,0.9,9.8,2.7,14.2c1.8,4.4,4.4,8.2,7.9,11.6c3.5,3.4,7.5,5.9,12.1,7.7
                  c4.6,1.7,9.5,2.6,14.8,2.6c7.2,0,13.6-1.6,19.3-4.7c5.7-3.1,10.3-7.6,13.8-13.5c1.5-2.5,2.6-5.4,3.4-8.7
                  c0.8-3.3,1.2-6.9,1.2-10.8C358.7,710.8,358.7,710.1,358.7,709.5z"/>
            </g>
         </g>
         <g>
            <rect x="321.7" y="706.3" fill="#00ACB4" width="24.4" height="16.2"/>
         </g>
      </g>
   </g>
   <g>
      <g>
         <path fill="#00ACB4" d="M195.7,695.1c-3.2-5.2-7.9-9.3-14-12.5c-2.9-1.5-6.6-2.6-11.2-3.3c-4.6-0.7-10.1-1.1-16.6-1.1h-20.4v68.8
            H152c7.7,0,13.8-0.3,18.4-1c4.6-0.7,8.3-1.8,11.3-3.3c6.1-3.2,10.8-7.3,14-12.5c3.2-5.1,4.8-11,4.8-17.6
            C200.5,706.1,198.9,700.2,195.7,695.1z M162.6,726.9c-1.4,0-2.8-0.2-4-0.6v-0.1v-26.7v0c1.3-0.4,2.6-0.6,4-0.6c7.7,0,14,6.3,14,14
            S170.3,726.9,162.6,726.9z"/>
      </g>
   </g>
   <circle fill="#F3EDD7" cx="469.7" cy="712.5" r="13.7"/>
   <path fill="#F3EDD7" d="M498.3,747.1v-68.8h46.9V697h-22.2v6.6h20.1v17.6h-20.1v7.2h22.8v18.7H498.3z"/>
   <path fill="#F3EDD7" d="M589.9,678.3v33.3c0,4.9-0.3,8-0.9,9.4c-0.6,1.3-1.7,2-3.2,2c-1.6,0-2.7-0.7-3.3-2.1
      c-0.6-1.4-0.9-4.5-0.9-9.3v-33.3h-25.4V715c0,11.8,2.4,20.4,7.1,25.8c4.7,5.4,12.2,8.2,22.5,8.2c10.2,0,17.7-2.7,22.4-8.2
      c4.7-5.4,7.1-14.1,7.1-25.8v-36.7H589.9z"/>
   <g id="logo-wrapper">
      <path  fill="transparent" d="M407.9,676.3c-20.1,0-36.3,16.3-36.3,36.3c0,11.1,5,21,12.8,27.6c0.4,4.5-1,12.1-12.1,19.8
         c0,0,18.6-2.7,28-11.9c2.5,0.5,5,0.8,7.7,0.8c20.1,0,36.3-16.3,36.3-36.3S427.9,676.3,407.9,676.3z"/>
      <path fill="#F3EDD7" d="M405.5,698.5V677c-18.6,1.2-33.3,16.7-33.3,35.6c0,10.6,4.6,20.1,11.9,26.6c0.7,4.2,0.1,12.6-11.9,20.9
         c0,0,19.4-2.8,28.6-12.6c1.5,0.3,3.1,0.5,4.7,0.6v-21.5c-6.7-1.1-11.9-7-11.9-14.1C393.6,705.5,398.7,699.7,405.5,698.5z"/>
      <g clip-path="url(#SVGID_2_)">
         <defs>
            <rect id="SVGID_1_" x="410.2" y="672.3" fill="#00ACB4" width="35.6" height="78.4"/>
         </defs>
         <clipPath id="SVGID_2_">
            <use xlink:href="#SVGID_1_"  overflow="visible"/>
         </clipPath>
         <g>
            <path id="gear" fill="#00ACB4" d="M438,703.6c-0.6-2-1.4-4-2.4-5.9l1.9-5.9l-8.8-8.9l-5.8,2c-1.8-1-3.8-1.8-5.8-2.4l-2.7-5.5h-4.2h-4.8h-4.2
               l-2.7,5.5c-2,0.6-4,1.4-5.8,2.4l-5.8-2l-8.8,8.9l1.9,5.9c-1,1.8-1.8,3.8-2.4,5.9l-5.5,2.8v12.6l5.5,2.8c0.6,2,1.4,4,2.4,5.9
               l-1.9,5.9l8.8,8.9l5.8-2c1.8,1,3.8,1.8,5.8,2.4l2.7,5.5h4.2h4.8h4.2l2.7-5.5c2-0.6,4-1.4,5.8-2.4l5.8,2l8.8-8.9l-1.9-5.9
               c1-1.8,1.8-3.8,2.4-5.9l5.5-2.8v-12.6L438,703.6z M407.9,726.9c-7.9,0-14.3-6.4-14.3-14.3s6.4-14.3,14.3-14.3
               c7.9,0,14.3,6.4,14.3,14.3S415.7,726.9,407.9,726.9z"/>
         </g>
      </g>
   </g>
</svg>