<?xml version="1.0" encoding="utf-8"?>
<!-- Generator: Adobe Illustrator 18.1.1, SVG Export Plug-In . SVG Version: 6.00 Build 0)  -->
<svg version="1.1" id="Layer_1" xmlns="http://www.w3.org/2000/svg" xmlns:xlink="http://www.w3.org/1999/xlink" x="0px" y="0px"
	 viewBox="0 0 400 60" enable-background="new 0 0 400 60" xml:space="preserve">
<path fill="#03ADB5" d="M2.9,49V4.7h19.4c6.8,0,11.8,1.3,15,3.9s4.7,6.7,4.7,12.3c0,5.2-1.4,9.1-4.3,11.5c-2.8,2.4-7.3,3.6-13.5,3.6
	h-5.1V49H2.9z M19.3,17v7.4h2.5c1.5,0,2.7-0.3,3.6-1c0.8-0.6,1.2-1.5,1.2-2.7s-0.4-2.1-1.3-2.7c-0.8-0.7-2-1-3.5-1H19.3z"/>
<path fill="#03ADB5" d="M48.6,49V4.7h30.2v12H64.5V21h13v11.4h-13V37h14.7v12H48.6z"/>
<path fill="#03ADB5" d="M131.5,49l16.1-44.4h18.1L181.6,49h-17.5l-1.5-5.6h-12.3L149,49H131.5z M153.1,32.9h6.8l-1.4-5
	c-0.7-2.5-1.1-4.5-1.4-5.9c-0.2-1.4-0.4-2.7-0.5-3.9h-0.3c-0.1,1.2-0.2,2.5-0.5,3.9c-0.2,1.4-0.7,3.3-1.4,5.9L153.1,32.9z"/>
<path fill="#03ADB5" d="M282.6,20.9c-0.4-1.3-0.9-2.6-1.6-3.8l1.3-3.8l-5.7-5.8l-3.8,1.3c-1.2-0.6-2.4-1.2-3.8-1.6l-1.8-3.6h-2.7v14
	c4.4,0.7,7.7,4.5,7.7,9.1s-3.3,8.4-7.7,9.1v14h2.7l1.8-3.6c1.3-0.4,2.6-0.9,3.8-1.6l3.8,1.3l5.7-5.8l-1.3-3.8
	c0.6-1.2,1.2-2.5,1.6-3.8l3.5-1.8v-8.2L282.6,20.9z"/>
<g>
	<g>
		<g>
			<g>
				<path fill="#03ADB5" d="M231.7,24.8c0-0.4-0.1-1.1-0.1-2h-15.7c0.6,1.2,0.9,2.6,0.9,4c0,5.1-4.2,9.3-9.3,9.3s-9.3-4.2-9.3-9.3
					s4.2-9.3,9.3-9.3c2.8,0,5.2,1.2,6.9,3.1l14.2-5.2c-2.3-3.8-5.2-6.8-8.8-8.7c-3.6-2-7.7-3-12.3-3c-3.4,0-6.6,0.6-9.5,1.7
					c-2.9,1.1-5.5,2.8-7.8,4.9c-2.2,2.1-3.9,4.6-5.1,7.4c-1.2,2.8-1.7,5.9-1.7,9.2c0,3.3,0.6,6.3,1.7,9.1c1.2,2.8,2.8,5.3,5.1,7.5
					c2.3,2.2,4.9,3.8,7.8,5c2.9,1.1,6.1,1.7,9.5,1.7c4.6,0,8.8-1,12.4-3c3.6-2,6.6-4.9,8.9-8.7c0.9-1.6,1.7-3.5,2.2-5.6
					c0.5-2.1,0.7-4.4,0.7-7C231.7,25.6,231.7,25.2,231.7,24.8z"/>
			</g>
		</g>
		<g>
			<rect x="207.9" y="22.7" fill="#03ADB5" width="15.7" height="10.4"/>
		</g>
	</g>
</g>
<g>
	<g>
		<path fill="#03ADB5" d="M126.7,15.5c-2.1-3.3-5.1-6-9-8c-1.9-0.9-4.3-1.7-7.2-2.1c-3-0.5-6.5-0.7-10.7-0.7H86.6V49h11.9
			c4.9,0,8.9-0.2,11.8-0.7c2.9-0.4,5.4-1.2,7.3-2.1c3.9-2,6.9-4.7,9-8c2.1-3.3,3.1-7.1,3.1-11.3C129.8,22.6,128.8,18.8,126.7,15.5z
			 M105.4,36c-0.9,0-1.8-0.1-2.6-0.4v-0.1V18.3v0c0.8-0.2,1.7-0.4,2.6-0.4c5,0,9,4,9,9S110.3,36,105.4,36z"/>
	</g>
</g>
<circle fill="#F4EED8" cx="303.2" cy="26.7" r="8.8"/>
<path fill="#F4EED8" d="M261.5,17.6V3.7c-12,0.8-21.6,10.8-21.6,23c0,6.9,3,13,7.7,17.2c0.5,2.7,0.1,8.1-7.7,13.5
	c0,0,12.6-1.8,18.5-8.2c1,0.2,2,0.3,3,0.4V35.8c-4.4-0.7-7.7-4.5-7.7-9.1S257.1,18.3,261.5,17.6z"/>
<path fill="#F4EED8" d="M321.7,49V4.7h30.2v12h-14.3V21h13v11.4h-13V37h14.7v12H321.7z"/>
<path fill="#F4EED8" d="M380.7,4.7v21.5c0,3.2-0.2,5.2-0.6,6c-0.4,0.8-1.1,1.3-2.1,1.3c-1,0-1.7-0.4-2.1-1.3c-0.4-0.9-0.6-2.9-0.6-6
	V4.7H359v23.6c0,7.6,1.5,13.1,4.6,16.6c3.1,3.5,7.9,5.3,14.5,5.3c6.6,0,11.4-1.8,14.4-5.3c3-3.5,4.5-9.1,4.5-16.6V4.7H380.7z"/>
</svg>
