<?xml version="1.0" encoding="utf-8"?>
<!-- Generator: Adobe Illustrator 18.1.1, SVG Export Plug-In . SVG Version: 6.00 Build 0)  -->
<svg version="1.1" id="Calque_1" xmlns="http://www.w3.org/2000/svg" xmlns:xlink="http://www.w3.org/1999/xlink" x="0px" y="0px"
	 viewBox="0 0 546.7 250.4" enable-background="new 0 0 546.7 250.4" xml:space="preserve">
<path fill="#00ADB5" d="M66.3,147.6v-44.4h19.4c6.8,0,11.8,1.3,15,3.9c3.2,2.6,4.7,6.7,4.7,12.3c0,5.2-1.4,9.1-4.3,11.5
	c-2.8,2.4-7.3,3.6-13.5,3.6h-5.1v13.1H66.3z M82.6,115.5v7.4h2.5c1.5,0,2.7-0.3,3.6-1c0.8-0.6,1.2-1.5,1.2-2.7s-0.4-2.1-1.3-2.7
	c-0.8-0.7-2-1-3.5-1H82.6z"/>
<path fill="#00ADB5" d="M111.9,147.6v-44.4h30.2v12h-14.3v4.3h13v11.4h-13v4.7h14.7v12H111.9z"/>
<path fill="#00ADB5" d="M194.9,147.6l16.1-44.4h18.1l15.8,44.4h-17.5l-1.5-5.6h-12.3l-1.4,5.6H194.9z M216.4,131.4h6.8l-1.4-5
	c-0.7-2.5-1.1-4.5-1.4-5.9c-0.2-1.4-0.4-2.7-0.5-3.9h-0.3c-0.1,1.2-0.2,2.5-0.5,3.9c-0.2,1.4-0.7,3.3-1.4,5.9L216.4,131.4z"/>
<path fill="#00ADB5" d="M345.9,119.4c-0.4-1.3-0.9-2.6-1.6-3.8l1.3-3.8l-5.7-5.8l-3.8,1.3c-1.2-0.6-2.4-1.2-3.8-1.6l-1.8-3.6h-2.7
	v14c4.4,0.7,7.7,4.5,7.7,9.1s-3.3,8.4-7.7,9.1v14h2.7l1.8-3.6c1.3-0.4,2.6-0.9,3.8-1.6l3.8,1.3l5.7-5.8l-1.3-3.8
	c0.6-1.2,1.2-2.5,1.6-3.8l3.5-1.8v-8.2L345.9,119.4z"/>
<g>
	<g>
		<g>
			<g>
				<path fill="#00ADB5" d="M295,123.3c0-0.4-0.1-1.1-0.1-2h-15.7c0.6,1.2,0.9,2.6,0.9,4c0,5.1-4.2,9.3-9.3,9.3
					c-5.1,0-9.3-4.2-9.3-9.3s4.2-9.3,9.3-9.3c2.8,0,5.2,1.2,6.9,3.1l14.2-5.2c-2.3-3.8-5.2-6.8-8.8-8.7c-3.6-2-7.7-3-12.3-3
					c-3.4,0-6.6,0.6-9.5,1.7c-2.9,1.1-5.5,2.8-7.8,4.9c-2.2,2.1-3.9,4.6-5.1,7.4c-1.2,2.8-1.7,5.9-1.7,9.2c0,3.3,0.6,6.3,1.7,9.1
					c1.2,2.8,2.8,5.3,5.1,7.5c2.3,2.2,4.9,3.8,7.8,5c2.9,1.1,6.1,1.7,9.5,1.7c4.6,0,8.8-1,12.4-3c3.6-2,6.6-4.9,8.9-8.7
					c0.9-1.6,1.7-3.5,2.2-5.6c0.5-2.1,0.7-4.4,0.7-7C295.1,124.1,295,123.7,295,123.3z"/>
			</g>
		</g>
		<g>
			<rect x="271.2" y="121.2" fill="#00ADB5" width="15.7" height="10.4"/>
		</g>
	</g>
</g>
<g>
	<g>
		<path fill="#00ADB5" d="M190,114c-2.1-3.3-5.1-6-9-8c-1.9-0.9-4.3-1.7-7.2-2.1c-3-0.5-6.5-0.7-10.7-0.7H150v44.4h11.9
			c4.9,0,8.9-0.2,11.8-0.7c2.9-0.4,5.4-1.2,7.3-2.1c3.9-2,6.9-4.7,9-8c2.1-3.3,3.1-7.1,3.1-11.3C193.1,121.1,192.1,117.3,190,114z
			 M168.7,134.5c-0.9,0-1.8-0.1-2.6-0.4V134v-17.2v0c0.8-0.2,1.7-0.4,2.6-0.4c5,0,9,4,9,9C177.7,130.5,173.7,134.5,168.7,134.5z"/>
	</g>
</g>
<circle fill="#F4EED7" cx="366.6" cy="125.3" r="8.8"/>
<path fill="#F4EED7" d="M324.8,116.1v-13.9c-12,0.8-21.6,10.8-21.6,23c0,6.9,3,13,7.7,17.2c0.5,2.7,0.1,8.1-7.7,13.5
	c0,0,12.6-1.8,18.5-8.2c1,0.2,2,0.3,3,0.4v-13.9c-4.4-0.7-7.7-4.5-7.7-9.1S320.4,116.9,324.8,116.1z"/>
<path fill="#F4EED7" d="M385,147.6v-44.4h30.2v12H401v4.3h13v11.4h-13v4.7h14.7v12H385z"/>
<path fill="#F4EED7" d="M444,103.2v21.5c0,3.2-0.2,5.2-0.6,6c-0.4,0.8-1.1,1.3-2.1,1.3c-1,0-1.7-0.4-2.1-1.3s-0.6-2.9-0.6-6v-21.5
	h-16.3v23.6c0,7.6,1.5,13.1,4.6,16.6c3.1,3.5,7.9,5.3,14.5,5.3c6.6,0,11.4-1.8,14.4-5.3c3-3.5,4.5-9.1,4.5-16.6v-23.6H444z"/>
</svg>
