<svg xmlns="http://www.w3.org/2000/svg" viewBox="1858.449 1187.632 44.477 44.368"><g transform="translate(0 1170)"><path class="a" d="M17.286,16.518a17.314,17.314,0,0,0-1.537-3.649L17,9.219l-5.474-5.57L7.875,4.9A20.816,20.816,0,0,0,4.226,3.361L2.593,0H0V13.445a8.8,8.8,0,0,1,7.395,8.739A8.8,8.8,0,0,1,0,30.923V44.368H2.593l1.729-3.457a17.315,17.315,0,0,0,3.649-1.537l3.649,1.248,5.474-5.57L15.846,31.4a24.431,24.431,0,0,0,1.537-3.649l3.361-1.729V18.247Z" transform="translate(1879.192 62) rotate(180)"/><path class="a" d="M278.886,16.518a17.314,17.314,0,0,0-1.537-3.649L278.6,9.219l-5.474-5.57L269.475,4.9a20.816,20.816,0,0,0-3.649-1.537L264.193,0H261.6V13.445a8.861,8.861,0,0,1,0,17.478V44.368h2.593l1.729-3.457a17.315,17.315,0,0,0,3.649-1.537l3.649,1.248,5.474-5.57L277.446,31.4a24.431,24.431,0,0,0,1.537-3.649l3.361-1.729V18.247Z" transform="translate(1620.582 17.632)"/></g></svg>