<?xml version="1.0" encoding="utf-8"?>
<!-- Generator: Adobe Illustrator 18.1.1, SVG Export Plug-In . SVG Version: 6.00 Build 0)  -->
<svg version="1.1" xmlns="http://www.w3.org/2000/svg" xmlns:xlink="http://www.w3.org/1999/xlink" x="0px" y="0px"
	 viewBox="-37 39 24 24" enable-background="new -37 39 24 24" xml:space="preserve">
<g id="student">
	<path d="M-28,50.8c-0.7,0-1.3,0.6-1.3,1.3s0.6,1.3,1.3,1.3s1.3-0.6,1.3-1.3S-27.3,50.8-28,50.8z M-22,50.8c-0.7,0-1.3,0.6-1.3,1.3
		s0.6,1.3,1.3,1.3s1.3-0.6,1.3-1.3S-21.3,50.8-22,50.8z M-25,41c-5.5,0-10,4.5-10,10s4.5,10,10,10s10-4.5,10-10S-19.5,41-25,41z
		 M-25,59c-4.4,0-8-3.6-8-8c0-0.3,0-0.6,0-0.9c2.4-1,4.2-3,5.2-5.4c1.8,2.6,4.8,4.2,8.2,4.2c0.8,0,1.5-0.1,2.3-0.3
		c0.2,0.7,0.3,1.5,0.3,2.3C-17,55.4-20.6,59-25,59z"/>
	<path fill="none" d="M-37,39h24v24h-24V39z"/>
	<path fill="none" d="M-40.5,51L-25,35.5L-9.5,51L-25,66.5L-40.5,51z"/>
</g>
<g id="duty" display="none">
	<path display="inline" d="M-25.9,49.3c-2-1-4.5-0.6-6.2,1.1c-2.1,2.1-2.1,5.6,0,7.8c2.1,2.1,5.6,2.1,7.8,0c1.7-1.7,2-4.2,1.1-6.2
		l2.8-2.8l2.6,2.6l2.6-2.6l-2.6-2.6l1.3-1.3l-2.6-2.6L-25.9,49.3z M-26.9,55.5c-0.7,0.7-1.9,0.7-2.6,0c-0.7-0.7-0.7-1.9,0-2.6
		c0.7-0.7,1.9-0.7,2.6,0C-26.2,53.6-26.2,54.8-26.9,55.5z"/>
</g>
<g id="tig" display="none">
	<g display="inline">
		<defs>
			<rect id="SVGID_1_" x="-35.1" y="40.9" width="20.2" height="20.2"/>
		</defs>
		<clipPath id="SVGID_2_">
			<use xlink:href="#SVGID_1_"  overflow="visible"/>
		</clipPath>
		<path clip-path="url(#SVGID_2_)" d="M-34.2,58.6h10.1v1.7h-10.1V58.6z M-30.7,47.7l2.4-2.4l11.9,11.9l-2.4,2.4L-30.7,47.7z
			 M-24.7,41.8l4.8,4.8l-2.4,2.4l-4.8-4.8L-24.7,41.8z M-31.9,48.9l4.8,4.8l-2.4,2.4l-4.8-4.8L-31.9,48.9z"/>
	</g>
</g>
<g id="dashboard" display="none">
	<path display="inline" d="M-27,59.2v-6.1h4.1v6.1h5.1V51h3.1L-25,41.8L-35.2,51h3.1v8.2H-27z"/>
</g>
<g id="marks" display="none">
	<g display="inline">
		<defs>
			<rect id="SVGID_3_" x="-37" y="39" width="24" height="24"/>
		</defs>
		<clipPath id="SVGID_4_">
			<use xlink:href="#SVGID_3_"  overflow="visible"/>
		</clipPath>
		<path clip-path="url(#SVGID_4_)" d="M-15,48.2l-7.2-0.6L-25,41l-2.8,6.6l-7.2,0.6l5.5,4.7l-1.6,7l6.2-3.7l6.2,3.7l-1.6-7L-15,48.2
			z M-25,54.4v-9.3l1.7,4l4.4,0.4l-3.3,2.9l1,4.3L-25,54.4z"/>
	</g>
</g>
</svg>
