<svg version="1.1" xmlns="http://www.w3.org/2000/svg" xmlns:xlink="http://www.w3.org/1999/xlink" x="0px" y="0px"
	 viewBox="-37 39 24 24" enable-background="new -37 39 24 24" xml:space="preserve">
<g id="duty">
	<path display="inline" d="M-25.9,49.3c-2-1-4.5-0.6-6.2,1.1c-2.1,2.1-2.1,5.6,0,7.8c2.1,2.1,5.6,2.1,7.8,0c1.7-1.7,2-4.2,1.1-6.2
		l2.8-2.8l2.6,2.6l2.6-2.6l-2.6-2.6l1.3-1.3l-2.6-2.6L-25.9,49.3z M-26.9,55.5c-0.7,0.7-1.9,0.7-2.6,0c-0.7-0.7-0.7-1.9,0-2.6
		c0.7-0.7,1.9-0.7,2.6,0C-26.2,53.6-26.2,54.8-26.9,55.5z"/>
</g>
</svg>